<svg id="Layer_1" data-name="Layer 1" xmlns="http://www.w3.org/2000/svg" viewBox="0 0 80 80"><defs><style>.cls-1{fill:none;}</style></defs><title>jb-logo-black</title><rect id="Rectangle_51" data-name="Rectangle 51" class="cls-1" width="80" height="80"/><g id="Group_65" data-name="Group 65"><path id="Path_1" data-name="Path 1" d="M19.48,38.26V48.32a.6.6,0,0,0,.56.57h5.31a.64.64,0,0,0,.67-.57V17H36.49V53A4.57,4.57,0,0,1,32,57.68H13.65A4.67,4.67,0,0,1,9,53V38.26Z"/><path id="Path_2" data-name="Path 2" d="M40.94,62V21.4H66c3.32,0,5.41,2.1,5.41,5.11v9c0,2.76-1.79,5.42-5.51,6.34,3.73.92,5.82,3.42,5.82,6.13v8.84C71.7,60,69.6,62,66.28,62ZM61.33,30.13a.63.63,0,0,0-.6-.66H51.31V37.9h9.4a.6.6,0,0,0,.62-.58V30.13Zm0,15.89a.63.63,0,0,0-.6-.66H51.31v9h9.4a.6.6,0,0,0,.62-.57V46Z"/></g></svg>