<svg xmlns="http://www.w3.org/2000/svg" viewBox="1104 1337.505 331.722 30.591">
  <defs>
    <style>
      .cls-1 {
        fill: #fff;
      }
    </style>
  </defs>
  <g id="Group_11" data-name="Group 11" transform="translate(1104 1337.505)">
    <path id="Path_16" data-name="Path 16" class="cls-1" d="M8.188,14.559c.042-.042.166-.125.291-.249s.291-.291.623-.582c1.164-1.039,3.533-3.533,5.029-5.2,2.411-2.7,3.076-3.658,3.076-4.2,0-.333-.291-.582-.956-.748-.707-.166-.831-.333-.831-.831V2.048c0-.623.083-.707.54-.707h.208c.748.083,2.743.166,4.323.166,1.413,0,2.66-.042,3.45-.125a.707.707,0,0,1,.291-.042c.5,0,.582.125.582.623v.79c0,.374-.125.623-.457.707l-.5.166a4.387,4.387,0,0,0-2.037,1.5c-.665.707-1.455,1.5-2.328,2.369l-2.909,2.826L14.256,12.73c-.914.914-1,1.039-1,1.288a1.677,1.677,0,0,0,.291.665l.873,1.205L17.332,19.8l2.7,3.616,2.037,2.66a5.1,5.1,0,0,0,2.2,1.663,3.6,3.6,0,0,1,.79.291c.374.125.457.333.457.873v.457c0,.5-.083.582-.582.582H24.9l-1.5-.083H22.112c-1.413,0-2.619.042-3.325.083h-.249c-.582,0-.623-.042-1-.707a11.012,11.012,0,0,0-1.039-1.7,98.385,98.385,0,0,0-6.318-8.936c-.707-.873-1.205-1.538-1.5-1.954a4.491,4.491,0,0,0-.79-.873c-.042,0-.083.208-.083.416l.042.166V19.8L7.9,22.373v1.746c.042.79.042,1.33.042,1.746a1.953,1.953,0,0,0,.208.914,2.128,2.128,0,0,0,1.5.748c.956.208,1.081.333,1.081.956v.831c0,.54-.125.665-.623.665h-.042c-2.369-.125-3.325-.166-4.821-.166-1.039,0-2.037.042-3.117.083L.54,29.979H.582c-.457,0-.582-.125-.582-.665v-.831c0-.582.125-.748,1.081-.956.873-.166,1.33-.374,1.5-.748.166-.166.166-.457.208-.914,0-.291,0-.914.042-1.746l.042-1.746V8.906L2.826,7.119c-.042-.79-.042-1.413-.042-1.746A2.057,2.057,0,0,0,2.577,4.5c-.166-.291-.623-.5-1.5-.748C.125,3.544,0,3.42,0,2.8v-.79C0,1.466.125,1.3.54,1.3H.623c1.247.083,3.574.166,4.78.166.748,0,1.829-.042,3.2-.083A13.56,13.56,0,0,0,10.142,1.3h.083c.416,0,.54.166.54.707V2.8c0,.582-.125.707-1.081.956-.873.208-1.33.416-1.5.748a1.9,1.9,0,0,0-.208.873c0,.457,0,1.039-.042,1.746V8.906L7.9,11.483v2.535l.083.665Z" transform="translate(0 -0.76)"/>
    <path id="Path_17" data-name="Path 17" class="cls-1" d="M81.809,12.314l-.042-3.408-.042-1.787c0-.79,0-1.413-.042-1.746a2,2,0,0,0-.166-.873c-.166-.291-.623-.5-1.5-.748-.956-.208-1.081-.333-1.081-.956v-.79c0-.54.125-.707.54-.707h.083c1.247.083,3.533.166,4.7.166.831,0,1.87-.042,3.242-.083A13.979,13.979,0,0,0,89,1.3h.083c.5,0,.54.166.54.707V2.8c0,.582-.125.707-1.081.956-.831.208-1.288.416-1.455.748a1.487,1.487,0,0,0-.208.873c-.042.416-.042,1.039-.042,1.746L86.8,8.906V22.331l.042,1.746c0,.79,0,1.33.042,1.746a1.547,1.547,0,0,0,.208.914,2.108,2.108,0,0,0,1.455.748c.914.208,1.081.333,1.081.914v.831c0,.54-.083.665-.54.665H89c-2.328-.125-3.325-.166-4.863-.166-1,0-2,.042-3.076.083l-1.538.083H79.44c-.416,0-.54-.125-.54-.665V28.4c0-.582.125-.707,1.081-.914.831-.166,1.288-.374,1.5-.748a2.076,2.076,0,0,0,.166-.914,17.215,17.215,0,0,0,.042-1.746l.042-1.746.042-3.45.042-6.567Z" transform="translate(-46.106 -0.76)"/>
    <path id="Path_18" data-name="Path 18" class="cls-1" d="M142.708,29.838c-2.286-.083-4.281-.125-7.606-.125-1.663,0-2.909,0-3.741.042l-1.538.083h-.042c-.457,0-.582-.125-.582-.665v-.831c0-.582.125-.748,1.081-.956.79-.166,1.288-.374,1.5-.707a1.953,1.953,0,0,0,.208-.914c0-.291,0-.873.042-1.746V22.231l.042-3.45V12.256l-.042-3.408V7.019c-.042-.79-.042-1.413-.042-1.746a1.9,1.9,0,0,0-.208-.873c-.166-.291-.665-.5-1.5-.748-.956-.208-1.081-.333-1.081-.956v-.79c0-.54.125-.707.582-.707h.083c1.5.125,3.782.166,5.861.166,1.33,0,2.452-.042,3.242-.083.582-.042,1.039-.083,1.413-.083.54,0,.707.166.707.707v1c0,.5-.249.623-1.205.79a6.287,6.287,0,0,0-2.328.665c-.291.333-.291.5-.333,2.909l-.042,2.286-.042,2.7V19.53l.042,3.616c.042,2.328.083,2.826.5,3.242.374.416,1,.54,2.7.54h2.411c1.579,0,2.369-.166,2.993-.665a4.672,4.672,0,0,0,1.247-2.535c.125-.79.291-1,.79-1h1c.416,0,.582.125.582.333V23.4l-.582,5.653c-.083.665-.374.914-1.122.914h-.125l-1.746-.083Z" transform="translate(-75.499 -0.701)"/>
    <path id="Path_19" data-name="Path 19" class="cls-1" d="M207.908,29.838c-2.244-.083-4.24-.125-7.565-.125-1.663,0-2.909,0-3.741.042l-1.538.083h-.042c-.457,0-.623-.125-.623-.665v-.831c0-.582.125-.748,1.081-.956.831-.166,1.288-.374,1.5-.707a1.953,1.953,0,0,0,.208-.914c0-.291,0-.873.042-1.746V22.231l.042-3.45V12.256l-.042-3.408V7.019c-.042-.79-.042-1.413-.042-1.746a1.9,1.9,0,0,0-.208-.873c-.166-.291-.665-.5-1.5-.748-.914-.208-1.081-.333-1.081-.956v-.79c0-.54.125-.707.582-.707h.083c1.5.125,3.782.166,5.9.166,1.33,0,2.452-.042,3.242-.083.54-.042,1-.083,1.413-.083.54,0,.665.166.665.707v1c0,.5-.249.623-1.205.79a6.287,6.287,0,0,0-2.328.665c-.291.333-.291.5-.333,2.909l-.042,2.286-.042,2.7V19.53l.042,3.616c.042,2.328.083,2.826.5,3.242.374.416,1,.54,2.7.54h2.411c1.579,0,2.369-.166,2.993-.665a4.973,4.973,0,0,0,1.205-2.535c.125-.79.333-1,.79-1h1c.416,0,.582.125.582.333V23.4l-.582,5.653c-.083.665-.416.914-1.122.914h-.125l-1.746-.083Z" transform="translate(-113.6 -0.701)"/>
    <path id="Path_20" data-name="Path 20" class="cls-1" d="M260.882,8.156a7.2,7.2,0,0,1,2.826-5.694C265.579.923,267.7.3,270.857.3c3.367,0,5.944.623,5.944,1.5v.249l-.457,3.907a2.566,2.566,0,0,0-.042.374c-.083.166-.166.208-.707.208H274.39a.548.548,0,0,1-.291-.416l-.125-.748C273.684,4,271.979,3,269.943,3c-2.452,0-4.323,1.5-4.323,3.491,0,1.746,1,2.951,4.78,5.611l2.535,1.787c3.367,2.369,4.863,4.655,4.863,7.482,0,4.7-4.281,8.271-10.017,8.271a27.088,27.088,0,0,1-5.32-.582c-.5-.166-1.081-.333-1.579-.54s-.582-.291-.582-.707a.707.707,0,0,1,.042-.291l.457-4.156c.042-.416.166-.54.623-.54h.748c.5,0,.748.125.831.457l.208,1.081c.291,1.5,2.494,2.66,4.946,2.66,2.785,0,4.946-1.787,4.946-4.2,0-1.663-1.081-3.034-3.949-5.029l-2.494-1.7c-4.24-2.743-5.777-4.988-5.777-7.939" transform="translate(-152.109 -0.175)"/>
    <path id="Path_21" data-name="Path 21" class="cls-1" d="M329.6,10.112V20.253l.042,3.408c0,1.039.042,1.787.042,2.12a1.618,1.618,0,0,0,.332,1.164c.208.291.374.333,2.161.582,1.039.166,1.205.291,1.205.831v.873c0,.5-.166.707-.748.707h-.208c-.457-.042-1.081-.083-1.912-.083-2.369-.042-2.66-.083-3.408-.083-1.039,0-2.078.042-3.2.083l-1.538.083h-.042c-.457,0-.623-.125-.623-.665v-.831c0-.582.125-.707,1.081-.956.831-.166,1.33-.374,1.5-.707a1.953,1.953,0,0,0,.208-.914c0-.291,0-.873.042-1.746l.042-1.746V8.906l-.042-1.787c-.042-.79-.042-1.413-.042-1.746a2.057,2.057,0,0,0-.208-.873c-.166-.291-.665-.5-1.5-.748-.956-.208-1.081-.333-1.081-.956v-.79c0-.54.125-.707.582-.707h.083c1.372.083,3.7.166,5.2.166.79,0,1.746,0,2.826-.042l3.076-.125H334.5a11.851,11.851,0,0,1,4.489.623,7.418,7.418,0,0,1,4.281,6.983c0,4.78-3.99,8.313-9.31,8.313-2.078,0-3.824-.374-3.824-.831a.315.315,0,0,1,.083-.166c0-.042.083-.125.249-.291l.374-.5a.616.616,0,0,1,.623-.333,1.033,1.033,0,0,1,.332.042h.208a5.875,5.875,0,0,0,5.9-6.027c0-3.242-2.037-5.154-5.611-5.154h-1c-1.5,0-1.663.125-1.663,1.663V7.535Z" transform="translate(-187.989 -0.76)"/>
    <path id="Path_22" data-name="Path 22" class="cls-1" d="M397.387,29.771c-.457-.042-.956-.042-1.621-.042-2.452,0-4.863.083-6.442.166h-.083c-.416,0-.54-.166-.54-.707v-.748c0-.582.125-.748,1.039-.956.873-.166,1.33-.416,1.5-.748a1.953,1.953,0,0,0,.208-.914c0-.333,0-.914.042-1.746l.042-1.746V8.906l-.042-1.787c-.042-.79-.042-1.413-.042-1.746a1.9,1.9,0,0,0-.208-.873c-.208-.333-.665-.5-1.5-.748-.956-.208-1.039-.333-1.039-.956v-.79c0-.54.125-.707.54-.707h.083c1.33.083,2.452.125,5.653.166l2.577.042,3.408-.042,3.2-.042c.956,0,1.455-.042,1.621-.042a3.462,3.462,0,0,1,.5-.042c.54,0,.748.208.748.665V2.09l-.208,4.489c0,.457-.166.582-.707.582h-1c-.291-.042-.374-.374-.54-1.122-.208-1.247-.748-1.746-1.87-1.787l-1.122-.042H397.3c-.54,0-.623.125-.665.707v1L396.6,7.493v5.445c.042.79.166.956,1,.956.125,0,.374,0,.831.042h1.7c.956,0,1.621.042,1.912.042,1.33,0,3.076-.083,3.99-.166h.125c.332,0,.5.125.5.333a2.748,2.748,0,0,1-.042.457l-.166,1.621c-.042.291-.083.5-.083.5-.083.208-.291.333-.665.333a1.864,1.864,0,0,1-.457-.042,10.133,10.133,0,0,0-1.413-.083l-1.7-.042h-1.912c-.831,0-1.455-.042-1.829-.042h-.374c-1.164,0-1.33.125-1.33,1v1.081c-.042,1.288-.042,2.244-.042,2.868l.042,2.2c0,1.787.042,2.12.457,2.535.333.416.623.457,2.286.457h.457l2.411-.042c2.577,0,3.491-.5,3.99-2.2.291-1.122.5-1.33,1.164-1.33h.748c.5,0,.665.166.665.5v.083l-.665,4.946c-.125.914-.333,1.081-1.039,1.081h-.166c-.291-.042-.748-.042-1.33-.083L403.5,29.9l-2.535-.125Z" transform="translate(-227.141 -0.76)"/>
    <path id="Path_23" data-name="Path 23" class="cls-1" d="M460.076,25.756a2.473,2.473,0,0,0,.166,1.039,1.233,1.233,0,0,0,.873.54,6.307,6.307,0,0,0,.914.208c.623.166.831.374.831,1v.748c0,.5-.125.707-.582.707a8.97,8.97,0,0,1-1.122-.083c-.831-.042-1.7-.083-2.535-.083h-.332c-.208.042-.956.042-2.369.083-.5.042-.956.042-1.164.083h-.416c-.416,0-.54-.125-.54-.5v-.873c0-.623.208-.79,1.372-1.039,1.122-.249,1.288-.54,1.288-2.369,0-.416.042-1.413.083-2.951.042-1.247.042-3.117.042-5.653V12.331l-.042-3.782-.042-2.2c-.042-1.829-.249-2.161-1.5-2.452-1-.208-1.205-.374-1.205-1V2.065c0-.54.125-.665.54-.665h.083l1.081.083c.79.042,1.413.083,2,.083.416,0,1.164-.042,2.2-.083a8.983,8.983,0,0,0,1.288-.083h.208a.311.311,0,0,1,.208.042c.166.042.291.208,1.164,1.372.623.831,1.579,1.954,2.909,3.533l4.863,5.486c2.161,2.577,3.658,4.24,4.406,5.112,1.787,1.954,2.826,3.2,3.159,3.616.873,1.039,1.081,1.288,1.164,1.288.042,0,.083-.125.083-.291v-.166a6.171,6.171,0,0,1-.042-.956l-.083-3.824-.042-4.24L478.9,8.424c-.042-1.205-.042-2.161-.083-2.785a2.226,2.226,0,0,0-.208-1,2.808,2.808,0,0,0-1.579-.831c-.748-.166-.831-.291-.831-.914V2.023c0-.416.166-.582.623-.582h.125l1.372.125c.457,0,1.205.042,2.161.042,1.164,0,2.078-.042,2.743-.083l1.164-.083h.083a.509.509,0,0,1,.582.582V2.73c0,.748-.125.873-.873,1-1.372.249-1.746.748-1.746,2.244,0,1,0,2-.042,3.117-.042,2.452-.125,7.274-.125,10.973,0,.873.042,1.663.042,2.535.042,2.826.042,4.53.042,5.2-.042.748,0,1.247,0,1.538a1.865,1.865,0,0,1,.042.457c0,.416-.083.582-.54.873a1.132,1.132,0,0,0-.416.333c-.416.374-.5.416-.748.416-.125,0-.249-.083-.416-.333-.166-.166-.416-.5-.79-.956l-3.616-4.2c-1.746-2.078-3.616-4.2-5.528-6.4-2.826-3.242-4.655-5.32-5.4-6.235L461.115,8.8c-.374-.457-.748-.873-.956-1.164-.166-.208-.291-.333-.333-.333a1.015,1.015,0,0,0-.042.291v.125l.042,1.33.125,3.782v5.4l.042,4.281Z" transform="translate(-265.183 -0.818)"/>
    <path id="Path_24" data-name="Path 24" class="cls-1" d="M571.51,27.075a4.094,4.094,0,0,1-1.164.665,21.981,21.981,0,0,1-9.352,1.829c-9.643,0-15.794-5.611-15.794-14.464,0-8.978,6.733-15,16.709-15a24.972,24.972,0,0,1,9.352,1.621c.79.333,1.081.623,1.081,1.205v.249l-.374,3.408c-.042.333-.083.582-.083.623-.042.249-.249.374-.665.374h-.707c-.623,0-.748-.083-.873-.582a5.5,5.5,0,0,0-.623-1.663c-.914-1.33-3.99-2.411-7.024-2.411-6.442,0-11.181,5.029-11.181,11.846,0,6.567,4.821,12.012,10.682,12.012a11.67,11.67,0,0,0,8.146-3.242c.582-.623.665-.707,1.289-.707h.79c.5,0,.707.125.707.374a2.472,2.472,0,0,1-.042.457l-.374,2.244a3.972,3.972,0,0,1-.5,1.164" transform="translate(-318.593 -0.058)"/>
    <path id="Path_25" data-name="Path 25" class="cls-1" d="M637.187,29.771c-.416-.042-.956-.042-1.621-.042-2.452,0-4.9.083-6.442.166h-.083c-.416,0-.54-.166-.54-.707v-.748c0-.582.125-.748,1.081-.956q1.247-.249,1.5-.748a1.953,1.953,0,0,0,.208-.914c0-.333,0-.914.042-1.746l.042-1.746V8.906l-.042-1.787c-.042-.79-.042-1.413-.042-1.746a1.9,1.9,0,0,0-.208-.873c-.166-.333-.623-.5-1.5-.748-.956-.208-1.081-.333-1.081-.956v-.79c0-.54.125-.707.54-.707h.083c1.33.083,2.452.125,5.653.166l2.577.042,3.367-.042,3.242-.042c.914,0,1.455-.042,1.621-.042a3.462,3.462,0,0,1,.5-.042c.5,0,.707.208.707.665V2.09l-.208,4.489c0,.457-.166.582-.665.582h-1.039c-.249-.042-.374-.374-.5-1.122-.208-1.247-.748-1.746-1.87-1.787l-1.122-.042H637.1c-.54,0-.582.125-.624.707v1l-.042,1.579v5.445c.042.79.166.956,1,.956a6.929,6.929,0,0,1,.79.042h1.746c1,0,1.621.042,1.912.042,1.33,0,3.034-.083,3.99-.166H646c.374,0,.5.125.5.333a2.748,2.748,0,0,1-.042.457l-.208,1.621c-.042.291-.083.5-.083.5a.6.6,0,0,1-.623.333,2.385,2.385,0,0,1-.5-.042,10.628,10.628,0,0,0-1.413-.083l-1.7-.042h-1.912c-.831,0-1.455-.042-1.829-.042h-.333c-1.164,0-1.33.125-1.33,1v1.081c-.042,1.288-.042,2.244-.042,2.868l.042,2.2c0,1.787.042,2.12.5,2.535.332.416.582.457,2.244.457h.457l2.411-.042c2.577,0,3.491-.5,3.99-2.2.291-1.122.5-1.33,1.164-1.33h.79c.457,0,.665.166.665.5v.083l-.665,4.946c-.125.914-.333,1.081-1.081,1.081h-.166c-.291-.042-.707-.042-1.33-.083l-2.12-.042-2.535-.125Z" transform="translate(-367.271 -0.76)"/>
    <path id="Path_26" data-name="Path 26" class="cls-1" d="M703.422,11.774v1.205c0,.748.125.831.956.831h.873a23.173,23.173,0,0,0,2.7-.291,4.8,4.8,0,0,0,3.284-4.7,4.4,4.4,0,0,0-3.242-4.489,16.458,16.458,0,0,0-3.367-.291c-1.039,0-1.122.042-1.122.707l-.042.79V6.786l-.042,2.494a24.191,24.191,0,0,0,0,2.494m3.242,5.528a1.506,1.506,0,0,0-1.621-1.122c-.125,0-.208.042-.291.042h-.707c-.54,0-.707.166-.707.707v1.954l.042,3.45.042,1.746c0,.79,0,1.33.042,1.746a1.609,1.609,0,0,0,.166.914,2.168,2.168,0,0,0,1.5.707c.956.208,1.081.333,1.081.956v.831c0,.54-.125.665-.582.665h-.083c-2.369-.125-3.325-.166-4.821-.166-1.039,0-2.078.042-3.159.083l-1.5.083h-.083c-.457,0-.582-.125-.582-.665V28.4c0-.582.166-.707,1.122-.956.79-.166,1.288-.374,1.455-.707a1.547,1.547,0,0,0,.208-.914c0-.291.042-.914.042-1.746l.042-1.746V8.906l-.042-1.787c0-.79-.042-1.413-.042-1.746a1.584,1.584,0,0,0-.208-.873c-.166-.291-.623-.5-1.455-.748-.956-.208-1.122-.333-1.122-.956v-.79c0-.54.125-.707.54-.707h.125c1.33.083,3.616.166,5.2.166.79,0,1.621,0,2.452-.042l2.577-.083c.79,0,1.538-.042,2.161-.042,2.826,0,4.614.582,6.068,2a6.977,6.977,0,0,1,1.995,4.946,6.811,6.811,0,0,1-5.2,6.9c-.291.042-.333.083-.333.166a.956.956,0,0,0,.125.374c.208.333.416.748.665,1.247.956,1.787,1.579,2.993,1.87,3.574a53.6,53.6,0,0,0,3.076,4.946c1.081,1.5,1.621,1.912,2.868,2.244.54.166.831.333.831.5v1.122c0,.374-.208.582-.748.582h-.249c-.623-.042-1.746-.083-2.993-.083-1.122,0-2.078.042-2.7.083h-.582c-.665,0-.873-.083-1.081-.707l-.748-1.746L710.2,24.95l-1.455-3.034-1.5-3.2Z" transform="translate(-406.364 -0.76)"/>
    <path id="Path_27" data-name="Path 27" class="cls-1" d="M772.942,6.151a4.274,4.274,0,0,0,.748-.042,2.354,2.354,0,0,0,.623-.125.909.909,0,0,0,.416-.374A1.189,1.189,0,0,0,774.9,4.9a1,1,0,0,0-.166-.623,1.434,1.434,0,0,0-.374-.333,2.058,2.058,0,0,0-.54-.166,2.744,2.744,0,0,0-.582-.042h-1.579V6.151Zm.54-3.408a3.179,3.179,0,0,1,2,.54,1.961,1.961,0,0,1,.665,1.621,1.793,1.793,0,0,1-.582,1.5,2.365,2.365,0,0,1-1.413.54l2.161,3.367h-1.288l-2.078-3.284H771.7v3.284h-1.164V2.743Zm-5.362,5.985a5.665,5.665,0,0,0,1.122,1.787,5.4,5.4,0,0,0,1.7,1.164,5.613,5.613,0,0,0,4.24,0,5.4,5.4,0,0,0,1.7-1.164,4.674,4.674,0,0,0,1.122-1.787,5.476,5.476,0,0,0,.416-2.2,5.276,5.276,0,0,0-.416-2.161,6.291,6.291,0,0,0-1.122-1.746,5.4,5.4,0,0,0-1.7-1.164,5.613,5.613,0,0,0-4.24,0,4.967,4.967,0,0,0-1.7,1.164,5.473,5.473,0,0,0-1.122,1.746,5.414,5.414,0,0,0-.416,2.161,4.853,4.853,0,0,0,.416,2.2m-1.081-4.78a7.081,7.081,0,0,1,1.413-2.078,6.607,6.607,0,0,1,9.227,0,6.576,6.576,0,0,1,1.413,2.078,6.647,6.647,0,0,1,.54,2.577,6.03,6.03,0,0,1-.54,2.619,6.576,6.576,0,0,1-1.413,2.078,6.561,6.561,0,0,1-4.614,1.87,6.566,6.566,0,0,1-2.535-.5,6.465,6.465,0,0,1-2.078-1.372,6.577,6.577,0,0,1-1.413-2.078,6.7,6.7,0,0,1-.54-2.619,5.973,5.973,0,0,1,.54-2.577" transform="translate(-447.913)"/>
  </g>
</svg>
