<svg xmlns="http://www.w3.org/2000/svg" viewBox="-1416 934.895 135.71 135.71">
  <defs>
    <style>
      .cls-1, .cls-2, .cls-3, .cls-4, .cls-5, .cls-6 {
        fill: #fff;
      }

      .cls-2 {
        opacity: 0.1;
      }

      .cls-3 {
        opacity: 0.75;
      }

      .cls-4 {
        opacity: 0.5;
      }

      .cls-5 {
        opacity: 0.3;
      }

      .cls-6 {
        opacity: 0.9;
      }
    </style>
  </defs>
  <g id="Symbol_1_1" data-name="Symbol 1 – 1" transform="translate(-2001 -87)">
    <path id="Path_38" data-name="Path 38" class="cls-1" d="M67.842,135.71A67.855,67.855,0,1,1,135.71,67.842,67.942,67.942,0,0,1,67.842,135.71Zm0-129.644a61.789,61.789,0,1,0,61.8,61.776,61.851,61.851,0,0,0-61.8-61.776Z" transform="translate(585 1021.895)"/>
    <path id="Path_39" data-name="Path 39" class="cls-2" d="M145.863,119.9h16.41a.354.354,0,0,1,.363.363v2.074a.354.354,0,0,1-.363.363h-16.41a.354.354,0,0,1-.363-.363v-2.074A.354.354,0,0,1,145.863,119.9Z" transform="translate(477.219 933.077)"/>
    <path id="Path_40" data-name="Path 40" class="cls-3" d="M145.863,165.1h16.41a.354.354,0,0,1,.363.363v2.074a.354.354,0,0,1-.363.363h-16.41a.354.354,0,0,1-.363-.363v-2.074A.371.371,0,0,1,145.863,165.1Z" transform="translate(477.219 899.595)"/>
    <path id="Path_41" data-name="Path 41" class="cls-4" d="M145.863,150.1h16.41a.354.354,0,0,1,.363.363v2.074a.354.354,0,0,1-.363.363h-16.41a.354.354,0,0,1-.363-.363v-2.074A.354.354,0,0,1,145.863,150.1Z" transform="translate(477.219 910.706)"/>
    <path id="Path_42" data-name="Path 42" class="cls-5" d="M145.863,135h16.41a.354.354,0,0,1,.363.363v2.074a.354.354,0,0,1-.363.363h-16.41a.354.354,0,0,1-.363-.363v-2.074A.354.354,0,0,1,145.863,135Z" transform="translate(477.219 921.892)"/>
    <path id="Path_43" data-name="Path 43" class="cls-6" d="M145.863,180.2h16.41a.354.354,0,0,1,.363.363v2.074a.354.354,0,0,1-.363.363h-16.41a.354.354,0,0,1-.363-.363v-2.074A.354.354,0,0,1,145.863,180.2Z" transform="translate(477.219 888.409)"/>
    <path id="Path_44" data-name="Path 44" class="cls-1" d="M183.326,157.353l21.75-22.865c0-1.97-1.089-3.189-2.929-3.189H188.2c-3.422,0-4.044.622-5.859,2.074L162.536,154.4v-5.651a.7.7,0,0,0-.7-.7H146.1a.7.7,0,0,0-.7.7v49.411a2.449,2.449,0,0,0,2.566,2.566h11.977a2.513,2.513,0,0,0,2.566-2.437V180.062l8.814-9.281,17.265,27.894c1.841,1.452,2.437,2.074,5.859,2.074h10.758c1.841,0,2.929-1.218,2.929-3.189Z" transform="translate(477.293 924.633)"/>
  </g>
</svg>
