<svg id="Layer_1" data-name="Layer 1" xmlns="http://www.w3.org/2000/svg" viewBox="0 0 501 566" width="500" fill="#fff"><path d="M165,66a6,6,0,0,1,6,5.3A6,6,0,1,1,159,72.7,6,6,0,0,1,164.3,66,5.48,5.48,0,0,1,165,66Zm-1,18a13.43,13.43,0,0,0,1.55-.09A13,13,0,1,0,164,84ZM-3.3,286a6,6,0,0,1-4.42-1.25,6,6,0,0,1-2.24-4,6,6,0,0,1,1.25-4.42,5.94,5.94,0,0,1,4-2.24,5.48,5.48,0,0,1,.7,0,6,6,0,0,1,6,5.3,6,6,0,0,1-1.25,4.42A6,6,0,0,1-3.3,286Zm-11.9-14a12.9,12.9,0,0,0-2.71,9.57A12.9,12.9,0,0,0-13,290.2,12.87,12.87,0,0,0-5,293a13.43,13.43,0,0,0,1.55-.09,12.9,12.9,0,0,0,8.68-4.86,12.89,12.89,0,0,0,2.71-9.57A13,13,0,0,0-6.52,267.09,12.9,12.9,0,0,0-15.2,272Zm395.9,96A6,6,0,0,1,379.3,356a5.63,5.63,0,0,1,.71,0,6,6,0,0,1,.69,12Zm-2.22-17.87A13,13,0,0,0,380,376a13.43,13.43,0,0,0,1.55-.09,13,13,0,1,0-3-25.82ZM413,530.7A6,6,0,0,1,418.3,524a5.74,5.74,0,0,1,.71,0,6,6,0,1,1-6,6.7Zm4.44-12.61A13,13,0,0,0,419,544a13.08,13.08,0,0,0,1.53-.09,13,13,0,1,0-3-25.82ZM319.7,558a6,6,0,1,1,4-2.24A6,6,0,0,1,319.7,558Zm-3.22-18.87A13,13,0,0,0,310,562.2a12.87,12.87,0,0,0,8,2.8,13.43,13.43,0,0,0,1.55-.09,13,13,0,1,0-3-25.82Zm-118.2-53.38a6,6,0,0,1,3-10.67,5.48,5.48,0,0,1,.7,0,6,6,0,1,1-3.72,10.71Zm3.2-17.62A13,13,0,0,0,203,494a13.43,13.43,0,0,0,1.55-.09,13,13,0,0,0,6.53-23.11A12.84,12.84,0,0,0,201.48,468.09ZM181,125a6,6,0,1,1-.71,0A5.63,5.63,0,0,1,181,125Zm-13.92,7.52A13,13,0,0,0,180,144a13.21,13.21,0,0,0,1.53-.09,13,13,0,1,0-14.43-11.39ZM408.15,179a3.54,3.54,0,0,1,3.84,3.26,3.58,3.58,0,0,1-3.22,3.89L365.85,190h-.31a3.59,3.59,0,0,1-.31-7.17ZM326,117.85a3.59,3.59,0,0,1,7.16-.62L337,160.15a3.57,3.57,0,0,1-3.27,3.84h-.32a3.58,3.58,0,0,1-3.57-3.23Zm19.82,55.27,36.75-43.82a3.66,3.66,0,0,1,5.11-.48,3.58,3.58,0,0,1,.48,5.06L351.42,177.7a3.65,3.65,0,0,1-5.11.47A3.57,3.57,0,0,1,345.83,173.12Zm-248,228.09a91.51,91.51,0,0,1-34.18-61.44c-5.91-50.38,30-96.2,80.15-102.14A90,90,0,0,1,185,242.35c1.15.41,2.29.85,3.42,1.31l1,.41c.91.38,1.81.78,2.71,1.18l1.3.61c.78.37,1.56.76,2.33,1.15l1.5.78c.58.31,1.17.63,1.74,1,.75.42,1.5.85,2.24,1.29.59.36,1.17.71,1.75,1.08l1.44.92,2,1.33c.4.28.8.55,1.2.84.85.61,1.7,1.24,2.53,1.88l.82.64c1,.76,1.92,1.54,2.85,2.34l.24.21c2.12,1.82,4.14,3.73,6,5.69.64.65,1.26,1.31,1.87,2a91.89,91.89,0,0,1,13.52,104.71,52,52,0,0,1-30.28-11.45,59.8,59.8,0,0,0-8.67-73.49l.05-.07-2.34-2.12h0l-.1-.09-.91-.82h0c-.18-.16-.37-.3-.55-.45s-.65-.55-1-.81-.73-.59-1.1-.87-.69-.52-1-.78l-1.13-.8-1.07-.74c-.38-.25-.76-.5-1.15-.74s-.73-.47-1.1-.69l-1.17-.69-1.14-.64-1.2-.63-1.16-.58-1.22-.58-1.19-.53-1.24-.52-1.21-.48-1.27-.46L173,272.2l-1.3-.4-1.23-.38-1.33-.34-1.23-.32-1.38-.29-1.22-.25c-.47-.09-.95-.16-1.43-.24l-1.18-.19-1.51-.18c-.38,0-.76-.1-1.14-.13-.57-.06-1.14-.09-1.71-.13-.32,0-.63-.05-.95-.06-.88-.05-1.77-.07-2.65-.07h-2.13l0,0c-1.82.05-3.5.15-5.09.34a59,59,0,0,0-39.73,22.35,59.84,59.84,0,0,0,53.67,96.46c1.56-.19,3.2-.47,4.95-.84a99.78,99.78,0,0,0,31.52,22.31,90.77,90.77,0,0,1-100.12-8.66ZM231,266.43l.39-.06A52.65,52.65,0,0,1,243.67,371l-.38,0A98.88,98.88,0,0,0,231,266.43ZM200.05,356a52.26,52.26,0,0,1-13.7-29.81A52.83,52.83,0,0,1,192.91,294a52.64,52.64,0,0,1,7.14,62Zm94.12-109.21a91.87,91.87,0,0,1-82.93,160.36L207,405.64a92.09,92.09,0,0,1-37-24.6l-1.43-1.56h-.07a92.15,92.15,0,0,1-12-103.15h.13l.72.05c.5,0,1,.06,1.5.11l.84.08,1.36.16.88.13,1.33.22.86.16c.45.08.89.18,1.33.28l.84.19,1.38.35.75.2,1.63.5.47.15c.7.23,1.39.48,2.08.74l.39.16c.55.21,1.1.43,1.65.67l.68.3,1.33.61.75.38,1.22.62c.26.14.52.28.77.43l1.18.67.75.45c.4.24.78.49,1.17.74l.71.46,1.25.87.57.41c.6.44,1.18.89,1.76,1.36a59.94,59.94,0,0,0,8.65,73.53l0,0,.46.41a61.66,61.66,0,0,0,4.75,4.2,58.84,58.84,0,0,0,38.54,12.82h.16c1.7-.06,3.4-.17,5.11-.38a59,59,0,0,0,39.74-22.35,60,60,0,0,0-9.85-84,58.88,58.88,0,0,0-43.82-12.45c-1.62.19-3.26.47-5.06.86l-.24-.24q-1.36-1.43-2.82-2.82l-1-.94c-.81-.76-1.63-1.5-2.47-2.24l-.65-.58-.17-.15a99.88,99.88,0,0,0-11.36-8.39l-.19-.12q-1.9-1.2-3.86-2.32l-.64-.35c-1.14-.64-2.29-1.26-3.46-1.85l-1.13-.56c-1-.49-2-1-3-1.43l-.57-.26a90.78,90.78,0,0,1,100.27,8.58ZM284,197l25.59-14L327,196.85l-17.6,22.48,2.09,1.67-27.22-21.65Zm58.43,45.71-2.32.27L315,223.24,332.6,201,350,214.69Zm-49.25-5.92-6.49-5.1-2.36-19.94L284,209l45,35.32L306.17,247ZM161,381.6l-.27,0a52.66,52.66,0,0,1-47.42-84.91A52.11,52.11,0,0,1,148.42,277l.39,0A99.08,99.08,0,0,0,161,381.6Zm88.4,35.85c54-6.4,92.73-55.7,86.36-109.91a98.4,98.4,0,0,0-23.8-53.7L347,249.69l10-37.14-23-18.24-3.48-2.76L309.61,175,276,193.37l4.27,36.37a97.87,97.87,0,0,0-94.45,5.44,97.07,97.07,0,0,0-42.73-4.51c-54,6.4-92.73,55.7-86.37,109.91A98.36,98.36,0,0,0,166.14,427.3,97,97,0,0,0,206.52,413a97.12,97.12,0,0,0,31.14,5.11A101,101,0,0,0,249.4,417.45ZM445,462c-10.43,3.35-25.38,7-40.85,7C378.5,469,360,458.91,349,439Zm2-6-96-22.93c8-4.59,20.64-10.07,35.75-10.07C408.31,423,428.53,434.09,447,456ZM338,434c13.49,33.8,40.43,43,65.76,43C434,477,462,463.87,462,463.87,436,426.56,409.23,416,387.25,416,358.55,416,338,434,338,434ZM242,543l60.58-79c1.09,10.77.68,27.86-8.9,43.86C283.85,524.25,266.5,536,242,543Zm55-84-61,79c1.94-17.29,7.75-45.11,25-62.71C270.56,465.6,282.64,460.14,297,459Zm6.46-8C227.37,451,229,553,229,553c103.33-19.52,78.34-101.91,78.34-101.91C306,451,304.74,451,303.46,451Zm41.17,63.06c-9.18-11.45-13.72-24.12-13.63-37.81l13.34,27.14a3.59,3.59,0,0,0,6.46-3.13L337.89,474a68.74,68.74,0,0,1,6.08,6.71c10.34,13.09,15,28.62,13.87,46.29A80,80,0,0,1,344.63,514.06ZM363.34,540c11.05-59.78-36.59-83-36.59-83C311.7,512.86,363.34,540,363.34,540ZM-22,201.06,88,192c-5.61,10.32-19.17,27-48.14,27C22.29,219,1.52,213-22,201.06ZM104.69,49,109,148c-7.71-7.44-18.31-20.63-21.23-38.95C84.79,90.28,90.48,70.13,104.69,49Zm11.56,100L112,50c9.61,14.58,23.11,40,20.72,64.82C131.48,127.74,125.94,139.2,116.25,149ZM.43,15,64,110c-11.25-2.2-31.62-8.51-46.27-26.4C4.09,67-1.7,43.92.43,15Zm69.44,91L7,12c17.55,8.24,47.2,25.48,59.45,52.14C72.45,77.18,73.58,91.22,69.87,106Zm54.48,76.06L154,194.69a3.59,3.59,0,0,0,2.8-6.61l-29.63-12.61-8.48-17.71c55.46-49.48-10.08-124.61-10.08-124.61C80.37,68,77.13,96.41,82.75,117.58l-9.18-1.8C102.52,35.15-4.87-1-4.87-1c-12.5,80.34,29.13,107.1,56,116-1,0-2.09-.08-3.12-.08v7.19c1.48,0,3,.07,4.49.19L24.81,133.51a3.59,3.59,0,0,0,2.69,6.66l26.82-10.89c-.68.6-1.37,1.21-2.1,1.81a64.58,64.58,0,0,1-42.07,15,76.67,76.67,0,0,1-10.25-.7c8.52-9.45,25-23.37,48.13-23.37v-7.19h0c-39.26,0-60.89,35.35-60.89,35.35a91,91,0,0,0,23,3.1c34.55,0,53.89-22.38,60-30.9l14.7,2.88a3.57,3.57,0,0,0,.46,0c7.34,18.58,21,30.32,26.45,34.5L119.52,176l-25,7.71c-23.32-12.65-43.74-17.28-61.16-17.28v7.18c15.55,0,31.94,4,48.86,11.93l-105,8.76c2-1.68,4.27-3.45,6.82-5.22a85.21,85.21,0,0,1,49.36-15.47v-7.18h0C-14,166.47-39,200.62-39,200.62-5.37,220.1,20.35,227,39.93,227c38,0,52.85-26.07,57.26-36.56Z" transform="translate(39 1)"></path></svg>