<svg xmlns="http://www.w3.org/2000/svg" width="80" height="84" viewBox="0 0 80 84" fill="#fff"><path fill-rule="evenodd" d="M80 73.925c0-3.525-1.239-6.042-2.702-7.47-2.564-2.462-6.053-2.491-10.98-2.549H62.18v19.757h5.32c3.435 0 5.486 0 7.292-.7 3.41-1.257 4.363-4.142 4.731-5.427.336-1.178.477-2.408.477-3.611zm-5.291.254c0 .643-.061 1.286-.228 1.9-.787 3.022-3.07 3.165-5.266 3.223h-2.054V68.303h2.083c1.575.055 4.085.14 5.067 3.077.311.897.398 1.848.398 2.8zm-2.8-11.805h4.563V42.617H69.66l-3.037 11.921-3.216-11.92h-6.753v19.756h4.587V49.358l3.72 13.016h3.29l3.659-13.016v13.016zM53.029 19.785h13.435v-4.422h-8.285V0h-5.15v19.785zm-15.289.004h13.433v-4.423h-8.279V.007H37.74V19.79zm.975 11.472c0-5.543-3.631-10.27-9.91-10.27-1.802 0-4.224.363-6.476 2.236-3.126 2.631-3.462 6.074-3.462 7.919 0 2.688.873 5.344 2.729 7.333 2.534 2.688 5.603 2.936 7.209 2.936 1.831 0 4.253-.362 6.476-2.236 3.124-2.66 3.434-6.127 3.434-7.918zm-5.347-.03c0 1.648-.31 3.36-1.44 4.56-.505.56-1.518 1.317-3.123 1.317-3.096 0-4.59-2.632-4.59-6.074 0-3.245 1.549-5.682 4.59-5.736 3.183-.054 4.563 2.631 4.563 5.934zm2.057-19.278V.033h-5.127v10.94c0 2.071-.029 3.19-.957 4.03-.476.45-1.266.783-2.308.783-1.128 0-1.831-.42-2.167-.7-1.013-.836-1.044-2.042-1.044-3.862V.032h-5.125v11.756c0 2.545.226 6.407 4.9 7.86 1.043.334 2.223.478 3.606.478 1.436 0 3.743-.144 5.713-1.655 2.34-1.787 2.509-3.887 2.509-6.518zm-18.079 44.29c.337-1.174.477-2.405.477-3.61 0-3.526-1.239-6.042-2.703-7.47-2.563-2.46-6.053-2.492-10.98-2.546H0v19.757h5.322c3.437 0 5.488 0 7.294-.704 3.406-1.256 4.363-4.139 4.73-5.427zm-4.814-3.356c0 .642-.056 1.285-.225 1.899-.79 3.026-3.07 3.165-5.268 3.22H4.986V47.01h2.083c1.574.054 4.082.14 5.065 3.076.312.897.397 1.849.397 2.8zm4.814-17.933c.337-1.177.477-2.409.477-3.614 0-3.525-1.239-6.042-2.703-7.467-2.563-2.462-6.053-2.494-10.98-2.548H0V41.08h5.322c3.437 0 5.488 0 7.294-.7 3.406-1.26 4.363-4.142 4.73-5.427zm-4.814-3.36c0 .643-.056 1.285-.225 1.903-.79 3.022-3.07 3.162-5.268 3.216H4.986V25.718h2.083c1.574.054 4.082.14 5.065 3.08.312.894.397 1.845.397 2.796zm2.503-21.597c-.843-.532-1.436-.59-1.997-.618.702-.086 1.916-.226 2.9-1.54.536-.753.787-1.68.787-2.574 0-1.485-.532-2.824-1.464-3.693C13.654.062 11.32.032 8.728.032H.056V19.79H10.39c1.97-.025 5.125-.054 6.45-2.994a5.803 5.803 0 00.478-2.351c0-1.12-.282-3.22-2.283-4.447zm-3.292-4.003c0 1.619-1.66 1.651-2.532 1.68H5.067v-3.5h4.027c.904 0 2.648.029 2.648 1.82zm.533 7.667c0 .614-.251 1.203-.647 1.54-.592.528-1.49.56-2.198.56H5.067v-4.175H9.32c.678 0 1.52.033 2.167.482.423.276.788.81.788 1.593zM6.812 63.906H.056v19.757h4.589V70.65l3.718 13.012h3.294L15.32 70.65v13.012h4.56V63.906h-6.812l-3.044 11.925-3.211-11.925zm29.29-1.532L32.043 54.9c2.703-.865 4.027-3.22 4.027-5.708 0-2.153-.9-3.833-2.082-4.87-2.002-1.706-4.676-1.706-6.872-1.706h-7.8v19.757h5.071v-6.658h2.588l3.607 6.658H36.1zm-5.268-13.155c0 .785-.311 1.733-1.324 2.182-.703.34-1.546.34-3.406.34l-1.716-.031V46.73h1.97c1.267 0 2.731.025 3.519.528.339.226.957.786.957 1.96zM21.237 73.73c0 2.689.872 5.344 2.729 7.33C26.499 83.748 29.57 84 31.175 84c1.83 0 4.253-.362 6.476-2.236 3.125-2.663 3.436-6.13 3.436-7.922 0-5.539-3.633-10.27-9.912-10.27-1.802 0-4.224.364-6.476 2.237-3.126 2.635-3.462 6.073-3.462 7.922zm5.347-.115c0-3.245 1.55-5.678 4.59-5.733 3.185-.056 4.564 2.628 4.564 5.934 0 1.648-.31 3.356-1.44 4.559-.505.56-1.52 1.313-3.123 1.313-3.097 0-4.59-2.627-4.59-6.073zM49.28 42.617v10.938c0 2.074-.029 3.19-.961 4.034-.477.449-1.264.782-2.304.782-1.127 0-1.835-.42-2.175-.7-1.01-.839-1.036-2.042-1.036-3.862V42.617h-5.127V54.37c0 2.545.226 6.41 4.9 7.865 1.04.334 2.224.474 3.604.474 1.433 0 3.745-.14 5.717-1.652 2.337-1.787 2.503-3.887 2.503-6.518v-11.92H49.28zm1.123-8.334h3.659c-.282 1.956-2.45 2.71-4.11 2.71-3.974 0-4.62-3.719-4.62-5.93 0-1.676.394-3.388 1.636-4.533.842-.783 2.138-1.286 3.435-1.286 2.926 0 4.222 2.294 4.616 2.965l3.55-2.656c-.932-1.317-3.24-4.562-8.672-4.562-6.45 0-9.887 4.727-9.887 10.38 0 5.93 3.83 10.044 9.717 10.044 3.237 0 4.504-1.511 4.956-2.068v1.734h3.886V30.335h-8.166v3.948zm-3.03 29.623H42.5v19.757h4.756V71.828l7.18 11.835h4.956V63.906h-4.783v11.81l-7.237-11.81z"></path></svg>