<svg xmlns="http://www.w3.org/2000/svg" viewBox="1112 988 314.9 26.405">
  <defs>
    <style>
      .cls-1 {
        fill: #fff;
      }
    </style>
  </defs>
  <g id="Group_12" data-name="Group 12" transform="translate(1111.9 988)">
    <path id="Path_28" data-name="Path 28" class="cls-1" d="M11,.6V18.4c0,2,0,3.6-1.1,5.2-1.5,2-4.3,2.7-6.9,2.7A13.576,13.576,0,0,1,.1,26V21.3a10.074,10.074,0,0,0,2.5.3,3.833,3.833,0,0,0,2.9-1c.9-.9.9-1.9.9-4V.6Z"/>
    <path id="Path_29" data-name="Path 29" class="cls-1" d="M35.3,16.8,31.8,5.2,28.3,16.8Zm1.2,4.1H27l-1.5,4.9h-5L29,.6h5.4L43,25.8H38Z"/>
    <path id="Path_30" data-name="Path 30" class="cls-1" d="M54.5,18.4c.6,1,2.5,3.8,7.8,3.8a8.031,8.031,0,0,0,2.7-.4,3,3,0,0,0,2.1-2.9,2.58,2.58,0,0,0-1.9-2.5,24.543,24.543,0,0,0-2.9-.8l-3-.6a19.165,19.165,0,0,1-3.2-.9A6.243,6.243,0,0,1,51.9,8c0-4.7,4-7.8,9.9-7.8a11.5,11.5,0,0,1,10.1,5L68.2,8c-.9-1.2-2.5-3.8-6.5-3.8C59.2,4.2,57,5.3,57,7.3c0,2.1,2.4,2.5,4.7,3l2.6.5c3.4.7,8.2,2.1,8.2,7.5,0,5.8-5.4,8.1-10.7,8.1a22.973,22.973,0,0,1-4.5-.5,11.537,11.537,0,0,1-6.5-4.7Z"/>
    <path id="Path_31" data-name="Path 31" class="cls-1" d="M93.8,4.3c-4.3,0-7.2,3.5-7.2,8.8,0,5.7,3.2,9,7.3,9,3.2,0,7.2-2.3,7.3-8.3.1-4.9-2.5-9.5-7.4-9.5m-.1,22.1A10.809,10.809,0,0,1,85,22.5a13.787,13.787,0,0,1-3.3-9.3C81.8,5.5,87,0,93.8,0c6.2,0,12.1,4.7,12,13.3,0,7.2-4.3,13.1-12.1,13.1"/>
    <path id="Path_32" data-name="Path 32" class="cls-1" d="M132.4.6h4.7V25.8H133L122,8.1l.3,17.7h-4.6V.6h4.2L133,18.4Z"/>
    <path id="Path_33" data-name="Path 33" class="cls-1" d="M190,.6V25.8h-4.6l.4-20.6-5.4,20.6h-4.2L170.8,5.2l.4,20.6h-4.7V.6h6.8l4.9,18.7L183,.6h7Z"/>
    <path id="Path_34" data-name="Path 34" class="cls-1" d="M214.9,16.8,211.5,5.2,208,16.8Zm1.3,4.1h-9.5l-1.5,4.9h-5L208.7.6h5.4l8.6,25.2h-5Z"/>
    <path id="Path_35" data-name="Path 35" class="cls-1" d="M237.7,4.7v7.9h1.7c1,0,2.1,0,3.1-.1,1.1,0,4.4-.2,4.4-3.9a3.519,3.519,0,0,0-2-3.4c-1-.5-2.2-.5-5-.5ZM233,.6h8c3.3,0,5.6,0,7.8,1.8a7.445,7.445,0,0,1,2.8,6.2,6.909,6.909,0,0,1-4.9,6.9l5.6,10.3H247l-5-9.3h-4.2v9.3h-4.7L233,.6Z"/>
    <path id="Path_36" data-name="Path 36" class="cls-1" d="M275.3,10.1l8.8,15.7h-5.4L271.9,14l-4,4.7v7.1h-4.7V.6h4.7V12.2L277.9.6h5.6Z"/>
    <path id="Path_37" data-name="Path 37" class="cls-1" d="M306.2,10.1,315,25.8h-5.4L302.8,14l-4,4.7v7.1h-4.7V.6h4.7V12.2L308.9.6h5.5Z"/>
  </g>
</svg>
