<svg xmlns="http://www.w3.org/2000/svg" viewBox="520 1332 269.239 43.8">
  <defs>
    <style>
      .cls-1 {
        fill: #fff;
      }
    </style>
  </defs>
  <g id="Group_14" data-name="Group 14" transform="translate(520.039 1332)">
    <path id="Path_45" data-name="Path 45" class="cls-1" d="M66.2,42.6A21.361,21.361,0,0,1,44.9,21.4,20.613,20.613,0,0,1,48.8,9.2a11.376,11.376,0,0,0-4.5-1A16.183,16.183,0,0,0,39,9.3,21.472,21.472,0,0,1,3.8,33.9a21.629,21.629,0,0,1,5.4-30A21.393,21.393,0,0,1,37.1,6.8a20.366,20.366,0,0,1,7.3-1.6,16.658,16.658,0,0,1,6.5,1.5A21.291,21.291,0,0,1,81.8,36a22.135,22.135,0,0,1-15.6,6.6Z"/>
    <path id="Path_46" data-name="Path 46" class="cls-1" d="M154.1,43.8,136.3,8.4h-9.4L108.7,43.8,86.7,0h44.5l-2.8,5.4h6.4L132.1,0h44.4Z"/>
    <path id="Path_47" data-name="Path 47" class="cls-1" d="M269.2,41v1.5H225.4V8.4H223V42.5H180.5V0H223V5.4h2.4V0h43.8Z"/>
  </g>
</svg>
