<svg xmlns="http://www.w3.org/2000/svg" width="50" height="31" viewBox="0 0 50 31" fill="#fff">
    <g fill-rule="evenodd">
        <path d="M44.08 1.26a10.26 10.26 0 0 0-11.45 1.87c-.61.58-1.22 1.15-1.77 1.77a1.87 1.87 0 0 1-1.57.67c-6.23 0-12.45-.05-18.67 0A10.23 10.23 0 0 0 .69 17.79a9.83 9.83 0 0 0 7.09 7.86 9.92 9.92 0 0 0 10.28-2.57c.61-.59 1.22-1.19 1.81-1.81a1.27 1.27 0 0 1 1-.44h18.98a10.27 10.27 0 0 0 4.23-19.57zM15.34 20.4A6.16 6.16 0 0 1 8.88 22a6.2 6.2 0 0 1-4.45-4.89 6.41 6.41 0 0 1 6.24-7.76c5.09-.09 10.19 0 15.29 0a4 4 0 0 1 .42.08c-.49.47-.88.82-1.24 1.19-3.27 3.26-6.51 6.54-9.8 9.78zM39.87 17c-5.13.07-10.26 0-15.4 0a.53.53 0 0 1-.17 0l-.14-.17c.6-.55 1.2-1.08 1.78-1.66 3-3 6.07-6.08 9.12-9.11a6.17 6.17 0 0 1 7-1.54 6.2 6.2 0 0 1 4.16 5.79A6.42 6.42 0 0 1 39.87 17z"></path>          
    </g>
</svg>