<svg version="1.1" id="Layer_1" xmlns="http://www.w3.org/2000/svg" x="0px" y="0px" width="93px" viewBox="0 0 144.7 34.5" xml:space="preserve"><path fill="#fff" d="M29.4,0.1h5.4v12.2c0,1.8-0.8,3.3-1.7,4.8L25,30.8c-3,5-12.2,4.9-15.1,0l-8.4-14C0.9,15.7,0,14,0,12.3V0.1h5.5v12.7 c0,0.2,0.2,0.7,0.2,0.8L14.2,28c1.2,2.1,5.5,2.1,6.7,0l8.2-14.2c0.2-0.3,0.3-0.9,0.3-1V0.1z M41.3,34.2h5.5V0h-5.5V34.2z M62.7,22.7 L80.4,16c7.7-3,9.2-8.3,9.2-16H55.4v4.7H84c-0.3,3.2-2.4,5.4-4.9,6.3l-17.5,6.7c-7.9,3-8.5,7.8-8.5,16.4h36.4v-4.7H58.7 C58.9,25.7,60,23.8,62.7,22.7 M96.2,34.2h5.5V0h-5.5V34.2z M144.7,9.9v14.6c0,5.4-4.7,9.8-10.5,9.8h-15.4c-5.8,0-10.5-4.4-10.5-9.9 V9.9c0-5.4,4.7-9.9,10.5-9.9h15.4C140,0,144.7,4.2,144.7,9.9 M139.2,9.9c0-2.7-2.3-5.1-5-5.1h-15.4c-2.6,0-5,2.5-5,5.1v14.5 c0,2.7,2.3,5.1,5,5.1h15.4c2.7,0,5-2.5,5-5.1V9.9z"></path></svg>
